<?xml version="1.0" encoding="UTF-8"?>
<svg id="Camada_1" xmlns="http://www.w3.org/2000/svg" version="1.1" viewBox="0 0 841.89 595.28">
  <!-- Generator: Adobe Illustrator 29.4.0, SVG Export Plug-In . SVG Version: 2.1.0 Build 152)  -->
  <defs>
    <style>
      .st0 {
        fill: #6bf9d7;
      }

      .st1 {
        fill: #e30613;
      }

      .st2 {
        fill: #003e36;
      }
    </style>
  </defs>
  <circle class="st0" cx="144.14" cy="173.04" r="48.58"/>
  <polygon class="st1" points="140.89 160.85 118.87 160.85 118.87 138.82 94.5 138.82 94.5 160.85 72.47 160.85 72.47 185.22 94.5 185.22 94.5 207.25 118.87 207.25 118.87 185.22 140.89 185.22 140.89 160.85"/>
  <g>
    <path class="st2" d="M153.95,198.93v2.62c-.88.06-1.57.41-2.07,1.07s-.74,1.54-.74,2.66.21,1.93.63,2.56.98.94,1.69.94c1.06,0,1.95-1.36,2.66-4.08.05-.2.09-.35.12-.46.56-2.12,1.16-3.54,1.8-4.27.64-.73,1.51-1.09,2.63-1.09,1.56,0,2.8.58,3.71,1.73s1.37,2.73,1.37,4.73-.47,3.49-1.42,4.65-2.24,1.78-3.89,1.86v-2.68c1.07,0,1.88-.36,2.46-1.06s.86-1.69.86-2.98c0-1.19-.23-2.11-.69-2.77-.46-.65-1.11-.98-1.94-.98-.33,0-.63.07-.92.22-.28.15-.52.35-.71.62-.3.42-.65,1.41-1.06,2.97-.22.82-.4,1.47-.54,1.94-.46,1.53-.99,2.6-1.6,3.23-.61.62-1.41.94-2.41.94-1.42,0-2.55-.55-3.4-1.66s-1.27-2.6-1.27-4.48.41-3.32,1.24-4.41c.82-1.09,1.98-1.7,3.47-1.83Z"/>
    <path class="st2" d="M149.68,191.37v-3l15.62-6.29v2.76l-3.35,1.27v7.49l3.35,1.29v2.74l-15.62-6.27ZM152.11,189.88l7.8,2.95v-5.96l-7.8,2.92v.09Z"/>
    <path class="st2" d="M144.22,172.9v-2.13l3.81,3.09v1.2l-3.81-2.16ZM149.68,180.26v-2.55h9.07c1.81,0,3.08-.31,3.81-.94.73-.63,1.09-1.69,1.09-3.2s-.35-2.55-1.06-3.19c-.71-.65-1.91-.97-3.6-.97h-9.31v-2.54h9.75c2.17,0,3.77.54,4.79,1.63,1.03,1.09,1.54,2.78,1.54,5.07s-.51,3.98-1.54,5.06c-1.02,1.08-2.62,1.63-4.8,1.63h-9.75Z"/>
    <path class="st2" d="M149.68,163.23v-5.39c0-2.89.67-5.08,2-6.57,1.33-1.49,3.3-2.24,5.89-2.24s4.38.74,5.72,2.23c1.34,1.49,2.02,3.6,2.02,6.34v5.63h-15.62ZM151.75,160.69h11.46v-2.76c0-2-.48-3.51-1.44-4.54-.96-1.03-2.37-1.55-4.23-1.55s-3.35.51-4.32,1.54-1.47,2.54-1.47,4.55v2.76Z"/>
    <path class="st2" d="M149.68,146.19v-10.21h2.08v7.72h4.24v-6.69h2.08v6.69h5.15v-7.83h2.09v10.33h-15.62Z"/>
  </g>
</svg>